<svg xmlns="http://www.w3.org/2000/svg" version="1.1" xmlns:xlink="http://www.w3.org/1999/xlink" xmlns:svgjs="http://svgjs.dev/svgjs" width="128" height="128" viewBox="0 0 128 128"><g transform="matrix(0.8046875,0,0,0.8046875,12.757770103900278,12.760752631578946)"><svg viewBox="0 0 95 95" data-background-color="#f7f6fe" preserveAspectRatio="xMidYMid meet" height="128" width="128" xmlns="http://www.w3.org/2000/svg" xmlns:xlink="http://www.w3.org/1999/xlink"><g id="tight-bounds" transform="matrix(1,0,0,1,-0.23774912495656508,-0.24049999999999727)"><svg viewBox="0 0 95.47549824991312 95.481" height="95.481" width="95.47549824991312"><g><svg viewBox="0 0 95.47549824991312 95.481" height="95.481" width="95.47549824991312"><g><svg viewBox="0 0 95.47549824991312 95.481" height="95.481" width="95.47549824991312"><g id="textblocktransform"><svg viewBox="0 0 95.47549824991312 95.481" height="95.481" width="95.47549824991312" id="textblock"><g><svg viewBox="0 0 95.47549824991312 95.481" height="95.481" width="95.47549824991312"><g><svg viewBox="0 0 95.47549824991312 95.481" height="95.481" width="95.47549824991312"><g><svg xmlns="http://www.w3.org/2000/svg" xmlns:xlink="http://www.w3.org/1999/xlink" version="1.1" x="0" y="0" viewBox="1.5030737710552464 1.5 92.99464120863753 93" enable-background="new 0 0 96 96" xml:space="preserve" height="95.481" width="95.47549824991312" class="icon-icon-0" data-fill-palette-color="accent" id="icon-0"><g fill="#6059ca" data-fill-palette-color="accent"><path d="M85.017 39.091C95.432 28.675 97.601 13.898 89.852 6.15 86.811 3.108 82.627 1.5 77.754 1.5 70.641 1.5 62.848 5.045 56.91 10.983L48 19.894 39.09 10.985C33.152 5.046 25.359 1.5 18.245 1.5 13.373 1.5 9.189 3.107 6.148 6.149-0.034 12.331 0.103 22.983 5.695 32.328A4 4 0 0 0 5.003 34.576 4.01 4.01 0 0 0 9.01 38.584C9.456 38.584 9.877 38.494 10.279 38.359 10.511 38.604 10.743 38.85 10.984 39.091L19.894 48.001 10.984 56.91C0.569 67.325-1.6 82.102 6.148 89.851 9.189 92.892 13.373 94.499 18.245 94.5H18.246C24.989 94.5 32.341 91.31 38.146 85.918 38.646 86.143 39.196 86.273 39.778 86.273A4.01 4.01 0 0 0 43.786 82.267C43.786 81.695 43.661 81.154 43.444 80.661L48 76.107 56.91 85.016C62.848 90.955 70.64 94.5 77.755 94.5H77.756C82.628 94.5 86.811 92.892 89.852 89.851 96.415 83.288 95.861 71.684 89.21 61.957A3.95 3.95 0 0 0 89.775 59.939 4.013 4.013 0 0 0 85.767 55.931C85.255 55.931 84.77 56.036 84.32 56.212L76.106 48zM48 71.865L24.136 48.001 48 24.136 71.864 48zM59.031 13.104C64.419 7.717 71.418 4.5 77.754 4.5 81.815 4.5 85.264 5.804 87.731 8.27 94.31 14.849 92.141 27.723 82.896 36.969L73.986 45.878 50.121 22.015zM12.563 36.388A3.96 3.96 0 0 0 13.016 34.576 4.012 4.012 0 0 0 8.193 30.652C3.354 22.516 3.093 13.447 8.27 8.271 10.737 5.805 14.186 4.501 18.246 4.501 24.582 4.501 31.582 7.718 36.97 13.106L45.88 22.015 22.015 45.879 13.105 36.969C12.915 36.78 12.747 36.581 12.563 36.388M41.3 78.564A4 4 0 0 0 39.779 78.26 4.013 4.013 0 0 0 35.771 82.268C35.771 82.796 35.879 83.298 36.066 83.76 30.813 88.624 24.234 91.5 18.246 91.5 14.186 91.499 10.737 90.195 8.27 87.729 1.692 81.15 3.861 68.275 13.105 59.03L22.015 50.122 45.879 73.985zM87.73 87.73C85.263 90.197 81.814 91.501 77.755 91.501H77.754C71.417 91.5 64.418 88.283 59.03 82.896L50.12 73.987 73.984 50.123 82.135 58.273A4 4 0 0 0 81.76 59.941 4.01 4.01 0 0 0 85.766 63.948C86.13 63.948 86.477 63.884 86.814 63.792 92.593 72.301 93.239 82.22 87.73 87.73" fill="#6059ca" data-fill-palette-color="accent"></path><path d="M56.118 37.886C56.148 37.689 56.179 37.492 56.179 37.286A4.013 4.013 0 0 0 52.171 33.278C50.784 33.278 49.561 33.987 48.841 35.061 48.562 35.043 48.284 35.019 48 35.019 40.842 35.019 35.019 40.842 35.019 48S40.842 60.981 48 60.981 60.981 55.158 60.981 48C60.981 43.913 59.079 40.267 56.118 37.886M48 57.981C42.496 57.981 38.019 53.503 38.019 48S42.497 38.019 48 38.019C48.08 38.019 48.158 38.029 48.238 38.031A4.01 4.01 0 0 0 52.171 41.294C53.067 41.294 53.886 40.988 54.554 40.49 56.65 42.321 57.982 45.005 57.982 48 57.981 53.503 53.504 57.981 48 57.981" fill="#6059ca" data-fill-palette-color="accent"></path><path d="M48 42.329A5.677 5.677 0 0 0 42.329 48C42.329 51.126 44.873 53.669 48 53.669S53.671 51.126 53.671 48A5.677 5.677 0 0 0 48 42.329M48 50.669A2.673 2.673 0 0 1 45.329 48C45.329 46.527 46.527 45.329 48 45.329S50.671 46.527 50.671 48A2.673 2.673 0 0 1 48 50.669" fill="#6059ca" data-fill-palette-color="accent"></path></g></svg></g></svg></g></svg></g></svg></g></svg></g></svg></g><defs></defs></svg><rect width="95.47549824991312" height="95.481" fill="none" stroke="none" visibility="hidden"></rect></g></svg></g></svg>