<svg width="1440" height="1018" viewBox="0 0 1440 1018" fill="none" xmlns="http://www.w3.org/2000/svg">
<g clip-path="url(#clip0_102_7)">
<rect width="1440" height="1018" fill="white"/>
<path d="M1475.06 915.139H-36V915.89H1475.06V915.139Z" fill="#6059CA"/>
<path d="M1323.65 963.48H1223.56V964.231H1323.65V963.48Z" fill="#6059CA"/>
<path d="M964.983 971.652H938.721V972.403H964.983V971.652Z" fill="#6059CA"/>
<path d="M1220.53 935.599H1162.54V936.35H1220.53V935.599Z" fill="#6059CA"/>
<path d="M253.065 940.647H122.54V941.398H253.065V940.647Z" fill="#6059CA"/>
<path d="M299.122 940.647H279.992V941.398H299.122V940.647Z" fill="#6059CA"/>
<path d="M644.429 953.325H361.317V954.076H644.429V953.325Z" fill="#6059CA"/>
<path d="M1162.39 96.8598L1178.53 99.5037L1162.39 102.148L1159.7 118.191L1157.04 102.148L1140.9 99.5037L1157.04 96.8598L1159.7 80.8163L1162.39 96.8598Z" fill="#6059CA"/>
<path d="M1163.48 99.5036L1173.03 112.723L1159.7 103.259L1146.4 112.723L1155.95 99.5036L1146.4 86.2842L1159.7 95.7782L1173.03 86.2842L1163.48 99.5036Z" fill="#6059CA"/>
<path d="M1163.45 99.5035C1163.45 100.492 1163.05 101.439 1162.35 102.138C1161.65 102.836 1160.69 103.229 1159.7 103.229C1158.7 103.229 1157.75 102.836 1157.05 102.138C1156.35 101.439 1155.95 100.492 1155.95 99.5035C1155.95 98.5155 1156.35 97.5679 1157.05 96.8692C1157.75 96.1706 1158.7 95.7781 1159.7 95.7781C1160.69 95.7781 1161.65 96.1706 1162.35 96.8692C1163.05 97.5679 1163.45 98.5155 1163.45 99.5035Z" fill="#6059CA"/>
<path d="M1275.54 717.69L1291.7 720.334L1275.54 722.978L1272.88 739.021L1270.22 722.978L1254.08 720.334L1270.22 717.69L1272.88 701.616L1275.54 717.69Z" fill="#6059CA"/>
<path d="M1276.65 720.334L1286.17 733.553L1272.88 724.059L1259.58 733.553L1269.13 720.334L1259.58 707.114L1272.88 716.578L1286.17 707.114L1276.65 720.334Z" fill="#6059CA"/>
<path d="M1276.62 720.334C1276.62 721.071 1276.4 721.791 1275.99 722.403C1275.58 723.016 1274.99 723.494 1274.31 723.776C1273.63 724.058 1272.87 724.131 1272.15 723.988C1271.42 723.844 1270.75 723.489 1270.23 722.968C1269.7 722.447 1269.35 721.783 1269.2 721.061C1269.06 720.338 1269.13 719.589 1269.41 718.908C1269.7 718.227 1270.18 717.646 1270.79 717.236C1271.41 716.827 1272.13 716.608 1272.88 716.608C1273.87 716.608 1274.82 717.001 1275.53 717.699C1276.23 718.398 1276.62 719.346 1276.62 720.334Z" fill="#6059CA"/>
<path d="M380.779 948.999L396.917 951.643L380.779 954.287L378.119 970.33L375.46 954.287L359.292 951.643L375.46 948.999L378.119 932.926L380.779 948.999Z" fill="#6059CA"/>
<path d="M381.868 951.643L391.418 964.862L378.12 955.368L364.823 964.862L374.343 951.643L364.823 938.423L378.12 947.887L391.418 938.423L381.868 951.643Z" fill="#6059CA"/>
<path d="M381.838 951.643C381.838 952.381 381.617 953.102 381.204 953.716C380.791 954.329 380.204 954.806 379.517 955.088C378.831 955.369 378.076 955.441 377.348 955.294C376.62 955.148 375.953 954.79 375.43 954.266C374.907 953.742 374.552 953.076 374.411 952.351C374.27 951.626 374.349 950.876 374.637 950.196C374.925 949.516 375.41 948.936 376.03 948.531C376.651 948.125 377.378 947.911 378.12 947.917C379.109 947.925 380.054 948.321 380.751 949.019C381.447 949.717 381.838 950.66 381.838 951.643V951.643Z" fill="#6059CA"/>
<path d="M958.698 30.5225L974.866 33.1664L958.698 35.8103L956.039 51.8838L953.379 35.8103L937.241 33.1664L953.379 30.5225L956.039 14.479L958.698 30.5225Z" fill="#6059CA"/>
<path d="M959.816 33.1664L969.336 46.3858L956.038 36.9219L942.741 46.3858L952.291 33.1664L942.741 19.947L956.038 29.4409L969.336 19.947L959.816 33.1664Z" fill="#6059CA"/>
<path d="M959.786 33.1665C959.786 34.1545 959.391 35.1021 958.688 35.8008C957.986 36.4995 957.032 36.892 956.039 36.892C955.045 36.892 954.092 36.4995 953.389 35.8008C952.686 35.1021 952.291 34.1545 952.291 33.1665C952.291 32.1784 952.686 31.2309 953.389 30.5322C954.092 29.8335 955.045 29.441 956.039 29.441C957.032 29.441 957.986 29.8335 958.688 30.5322C959.391 31.2309 959.786 32.1784 959.786 33.1665V33.1665Z" fill="#6059CA"/>
<path d="M1085.51 307.859L1101.64 310.503L1085.51 313.147L1082.85 329.19L1080.19 313.147L1064.05 310.503L1080.19 307.859L1082.85 291.815L1085.51 307.859Z" fill="#6059CA"/>
<path d="M1086.59 310.503L1096.14 323.722L1082.85 314.258L1069.55 323.722L1079.1 310.503L1069.55 297.283L1082.85 306.777L1096.14 297.283L1086.59 310.503Z" fill="#6059CA"/>
<path d="M1086.59 310.503C1086.59 311.24 1086.37 311.96 1085.96 312.573C1085.55 313.185 1084.96 313.663 1084.28 313.945C1083.6 314.227 1082.84 314.301 1082.11 314.157C1081.39 314.013 1080.72 313.658 1080.2 313.137C1079.67 312.616 1079.31 311.952 1079.17 311.23C1079.03 310.507 1079.1 309.758 1079.38 309.077C1079.67 308.397 1080.15 307.815 1080.76 307.405C1081.38 306.996 1082.1 306.778 1082.85 306.778C1083.84 306.785 1084.79 307.18 1085.49 307.877C1086.19 308.574 1086.59 309.517 1086.59 310.503V310.503Z" fill="#6059CA"/>
<path d="M1083.6 918.324L1099.74 920.968L1083.6 923.612L1080.94 939.655L1078.28 923.612L1062.14 920.968L1078.28 918.324L1080.94 902.25L1083.6 918.324Z" fill="#6059CA"/>
<path d="M1084.69 920.968L1094.24 934.187L1080.94 924.693L1067.65 934.187L1077.16 920.968L1067.65 907.749L1080.94 917.212L1094.24 907.749L1084.69 920.968Z" fill="#6059CA"/>
<path d="M1084.69 920.968C1084.69 921.956 1084.3 922.904 1083.59 923.602C1082.89 924.301 1081.94 924.693 1080.94 924.693C1079.95 924.693 1079 924.301 1078.29 923.602C1077.59 922.904 1077.2 921.956 1077.2 920.968C1077.2 919.98 1077.59 919.032 1078.29 918.334C1079 917.635 1079.95 917.243 1080.94 917.243C1081.94 917.243 1082.89 917.635 1083.59 918.334C1084.3 919.032 1084.69 919.98 1084.69 920.968Z" fill="#6059CA"/>
<path d="M145.055 574.71L158.745 576.964L145.055 579.187L142.788 592.797L140.552 579.187L126.861 576.964L140.552 574.71L142.788 561.1L145.055 574.71Z" fill="#6059CA"/>
<path d="M145.992 576.964L154.061 588.17L142.788 580.118L131.516 588.17L139.615 576.964L131.516 565.757L142.788 573.779L154.061 565.757L145.992 576.964Z" fill="#6059CA"/>
<path d="M145.961 576.964C145.991 577.593 145.831 578.217 145.501 578.755C145.171 579.293 144.687 579.721 144.11 579.983C143.534 580.245 142.892 580.329 142.267 580.225C141.641 580.121 141.062 579.833 140.603 579.398C140.144 578.964 139.826 578.402 139.691 577.787C139.556 577.171 139.609 576.529 139.844 575.944C140.079 575.359 140.485 574.857 141.01 574.503C141.535 574.149 142.154 573.96 142.788 573.959C143.197 573.939 143.606 574.001 143.991 574.143C144.375 574.285 144.726 574.503 145.023 574.784C145.32 575.065 145.556 575.403 145.717 575.778C145.879 576.153 145.961 576.556 145.961 576.964Z" fill="#6059CA"/>
<path d="M1139.78 584.835L1153.47 587.088L1139.78 589.342L1137.55 602.952L1135.28 589.342L1121.59 587.088L1135.28 584.835L1137.55 571.255L1139.78 584.835Z" fill="#6059CA"/>
<path d="M1140.72 587.089L1148.82 598.295L1137.55 590.243L1126.27 598.295L1134.34 587.089L1126.27 575.882L1137.55 583.934L1148.82 575.882L1140.72 587.089Z" fill="#6059CA"/>
<path d="M1137.55 590.243C1139.3 590.243 1140.72 588.831 1140.72 587.088C1140.72 585.346 1139.3 583.934 1137.55 583.934C1135.79 583.934 1134.37 585.346 1134.37 587.088C1134.37 588.831 1135.79 590.243 1137.55 590.243Z" fill="#6059CA"/>
<path d="M1285.81 311.224L1299.5 313.447L1285.81 315.701L1283.54 329.311L1281.31 315.701L1267.62 313.447L1281.31 311.224L1283.54 297.614L1285.81 311.224Z" fill="#6059CA"/>
<path d="M1286.75 313.447L1294.82 324.654L1283.54 316.632L1272.27 324.654L1280.37 313.447L1272.27 302.241L1283.54 310.293L1294.82 302.241L1286.75 313.447Z" fill="#6059CA"/>
<path d="M1283.54 316.602C1285.3 316.602 1286.72 315.19 1286.72 313.447C1286.72 311.705 1285.3 310.293 1283.54 310.293C1281.79 310.293 1280.37 311.705 1280.37 313.447C1280.37 315.19 1281.79 316.602 1283.54 316.602Z" fill="#6059CA"/>
<path d="M334.662 39.3254L348.352 41.5787L334.662 43.832L332.395 57.4119L330.159 43.832L316.469 41.5787L330.159 39.3254L332.395 25.7155L334.662 39.3254Z" fill="#6059CA"/>
<path d="M335.599 41.5789L343.668 52.7854L332.396 44.7335L321.123 52.7854L329.222 41.5789L321.123 30.3725L332.396 38.3943L343.668 30.3725L335.599 41.5789Z" fill="#6059CA"/>
<path d="M332.395 44.7334C334.148 44.7334 335.569 43.321 335.569 41.5788C335.569 39.8365 334.148 38.4241 332.395 38.4241C330.643 38.4241 329.222 39.8365 329.222 41.5788C329.222 43.321 330.643 44.7334 332.395 44.7334Z" fill="#6059CA"/>
<path d="M422.183 661.447L435.842 663.701L422.183 665.924L419.916 679.534L417.68 665.924L403.989 663.701L417.68 661.447L419.916 647.867L422.183 661.447Z" fill="#6059CA"/>
<path d="M423.119 663.701L431.188 674.907L419.916 666.855L408.644 674.907L416.743 663.701L408.644 652.494L419.916 660.516L431.188 652.494L423.119 663.701Z" fill="#6059CA"/>
<path d="M419.916 666.855C421.668 666.855 423.089 665.443 423.089 663.701C423.089 661.958 421.668 660.546 419.916 660.546C418.163 660.546 416.743 661.958 416.743 663.701C416.743 665.443 418.163 666.855 419.916 666.855Z" fill="#6059CA"/>
<path d="M711.882 905.856L725.572 908.079L711.882 910.332L709.615 923.912L707.348 910.332L693.688 908.079L707.348 905.856L709.615 892.246L711.882 905.856Z" fill="#6059CA"/>
<path d="M712.818 908.079L720.888 919.286L709.615 911.264L698.343 919.286L706.442 908.079L698.343 896.873L709.615 904.925L720.888 896.873L712.818 908.079Z" fill="#6059CA"/>
<path d="M712.788 908.079C712.788 908.703 712.602 909.313 712.253 909.832C711.905 910.35 711.409 910.755 710.829 910.994C710.249 911.232 709.611 911.295 708.996 911.173C708.38 911.051 707.815 910.751 707.371 910.31C706.927 909.868 706.625 909.306 706.503 908.695C706.38 908.083 706.443 907.448 706.683 906.872C706.923 906.295 707.33 905.803 707.852 905.456C708.374 905.109 708.987 904.924 709.615 904.924C710.037 904.903 710.46 904.97 710.855 905.121C711.249 905.271 711.608 905.503 711.907 905.8C712.206 906.098 712.439 906.454 712.591 906.847C712.743 907.239 712.81 907.659 712.788 908.079Z" fill="#6059CA"/>
<path d="M853.801 274.931L867.491 277.154L853.801 279.407L851.534 293.017L849.298 279.407L835.608 277.154L849.298 274.931L851.534 261.321L853.801 274.931Z" fill="#6059CA"/>
<path d="M854.738 277.154L862.807 288.361L851.534 280.339L840.262 288.361L848.361 277.154L840.262 265.948L851.534 273.999L862.807 265.948L854.738 277.154Z" fill="#6059CA"/>
<path d="M854.707 277.154C854.707 277.778 854.521 278.388 854.172 278.907C853.824 279.425 853.328 279.83 852.748 280.069C852.168 280.307 851.53 280.37 850.915 280.248C850.299 280.126 849.734 279.826 849.29 279.385C848.846 278.944 848.544 278.381 848.422 277.77C848.299 277.158 848.362 276.523 848.602 275.947C848.843 275.37 849.249 274.878 849.771 274.531C850.293 274.184 850.906 273.999 851.534 273.999C851.956 273.978 852.379 274.045 852.774 274.196C853.168 274.347 853.527 274.578 853.826 274.875C854.125 275.173 854.358 275.529 854.51 275.922C854.662 276.314 854.729 276.734 854.707 277.154V277.154Z" fill="#6059CA"/>
<path d="M228.738 207.542L244.876 210.156L228.738 212.8L226.078 228.873L223.419 212.8L207.281 210.156L223.419 207.542L226.078 191.468L228.738 207.542Z" fill="#6059CA"/>
<path d="M229.825 210.156L239.375 223.406L226.078 213.912L212.78 223.406L222.3 210.156L212.78 196.937L226.078 206.431L239.375 196.937L229.825 210.156Z" fill="#6059CA"/>
<path d="M229.945 210.156C229.951 210.894 229.737 211.617 229.329 212.234C228.921 212.85 228.337 213.332 227.653 213.619C226.969 213.906 226.215 213.984 225.486 213.843C224.757 213.703 224.086 213.351 223.559 212.831C223.032 212.311 222.672 211.647 222.525 210.924C222.378 210.2 222.45 209.45 222.733 208.767C223.016 208.085 223.496 207.501 224.113 207.09C224.73 206.68 225.456 206.46 226.198 206.46C227.187 206.46 228.135 206.849 228.837 207.541C229.539 208.233 229.937 209.173 229.945 210.156V210.156Z" fill="#6059CA"/>
<path d="M611.245 4.11382L627.384 6.75771L611.245 9.40158L608.586 25.4751L605.927 9.40158L589.789 6.75771L605.927 4.11382L608.586 -11.9297L611.245 4.11382Z" fill="#6059CA"/>
<path d="M612.333 6.75765L621.883 19.977L608.586 10.5132L595.288 19.977L604.838 6.75765L595.288 -6.46173L608.586 3.03217L621.883 -6.46173L612.333 6.75765Z" fill="#6059CA"/>
<path d="M612.333 6.75789C612.333 7.74594 611.939 8.69351 611.236 9.39217C610.533 10.0908 609.58 10.4833 608.586 10.4833C607.592 10.4833 606.639 10.0908 605.936 9.39217C605.233 8.69351 604.839 7.74594 604.839 6.75789C604.839 5.76983 605.233 4.82224 605.936 4.12358C606.639 3.42492 607.592 3.03241 608.586 3.03241C609.58 3.03241 610.533 3.42492 611.236 4.12358C611.939 4.82224 612.333 5.76983 612.333 6.75789V6.75789Z" fill="#6059CA"/>
<path d="M508.161 339.436L524.299 342.079L508.161 344.723L505.501 360.767L502.812 344.723L486.674 342.079L502.812 339.436L505.501 323.392L508.161 339.436Z" fill="#6059CA"/>
<path d="M509.25 342.079L518.769 355.299L505.502 345.835L492.205 355.299L501.725 342.079L492.205 328.86L505.502 338.354L518.769 328.86L509.25 342.079Z" fill="#6059CA"/>
<path d="M509.22 342.079C509.22 342.817 508.999 343.539 508.586 344.152C508.173 344.765 507.586 345.243 506.899 345.524C506.213 345.805 505.458 345.877 504.73 345.731C504.002 345.585 503.334 345.227 502.812 344.703C502.289 344.179 501.934 343.512 501.793 342.788C501.652 342.063 501.73 341.313 502.019 340.633C502.307 339.952 502.792 339.373 503.412 338.967C504.032 338.561 504.76 338.348 505.502 338.354C505.993 338.354 506.479 338.45 506.932 338.638C507.385 338.826 507.796 339.1 508.142 339.447C508.487 339.793 508.76 340.204 508.945 340.656C509.13 341.108 509.224 341.592 509.22 342.079Z" fill="#6059CA"/>
<path d="M259.2 846.939L275.338 849.583L259.2 852.227L256.54 868.27L253.881 852.227L237.743 849.583L253.881 846.939L256.54 830.896L259.2 846.939Z" fill="#6059CA"/>
<path d="M260.288 849.583L269.838 862.803L256.541 853.339L243.244 862.803L252.763 849.583L243.244 836.364L256.541 845.858L269.838 836.364L260.288 849.583Z" fill="#6059CA"/>
<path d="M260.167 849.583C260.167 850.32 259.947 851.04 259.535 851.653C259.124 852.266 258.538 852.743 257.854 853.025C257.169 853.307 256.415 853.381 255.689 853.237C254.962 853.093 254.294 852.739 253.77 852.218C253.246 851.696 252.889 851.033 252.744 850.31C252.6 849.587 252.674 848.838 252.957 848.158C253.241 847.477 253.721 846.895 254.338 846.486C254.954 846.076 255.678 845.858 256.42 845.858C257.413 845.858 258.367 846.25 259.069 846.949C259.772 847.648 260.167 848.595 260.167 849.583V849.583Z" fill="#6059CA"/>
<path d="M911.553 647.837L927.691 650.481L911.553 653.125L908.893 669.169L906.234 653.125L890.066 650.481L906.234 647.837L908.893 631.794L911.553 647.837Z" fill="#6059CA"/>
<path d="M912.641 650.481L922.19 663.701L908.893 654.207L895.596 663.701L905.116 650.481L895.596 637.262L908.893 646.726L922.19 637.262L912.641 650.481Z" fill="#6059CA"/>
<path d="M912.641 650.481C912.641 651.47 912.246 652.417 911.543 653.116C910.84 653.814 909.887 654.207 908.893 654.207C907.899 654.207 906.946 653.814 906.243 653.116C905.541 652.417 905.146 651.47 905.146 650.481C905.146 649.493 905.541 648.546 906.243 647.847C906.946 647.149 907.899 646.756 908.893 646.756C909.887 646.756 910.84 647.149 911.543 647.847C912.246 648.546 912.641 649.493 912.641 650.481Z" fill="#6059CA"/>
<path d="M521.886 107.727C526.438 79.8507 507.396 53.5843 479.356 49.0594C451.315 44.5344 424.894 63.4644 420.342 91.3406C415.791 119.217 434.832 145.483 462.873 150.008C490.913 154.533 517.334 135.603 521.886 107.727Z" fill="#D3D2EE"/>
<path d="M1285.02 479.753C1291.54 452.268 1274.42 424.727 1246.77 418.24C1219.13 411.752 1191.42 428.775 1184.9 456.261C1178.37 483.747 1195.49 511.288 1223.14 517.775C1250.79 524.262 1278.49 507.239 1285.02 479.753Z" fill="#D3D2EE"/>
<path d="M819.378 1029.64C847.786 1029.64 870.814 1006.74 870.814 978.502C870.814 950.261 847.786 927.367 819.378 927.367C790.971 927.367 767.942 950.261 767.942 978.502C767.942 1006.74 790.971 1029.64 819.378 1029.64Z" fill="#D3D2EE"/>
<path d="M1070.56 140.037C1074.3 124.292 1064.49 108.515 1048.65 104.799C1032.82 101.082 1016.95 110.834 1013.21 126.579C1009.47 142.325 1019.28 158.101 1035.12 161.818C1050.95 165.534 1066.82 155.782 1070.56 140.037Z" fill="#D3D2EE"/>
<path d="M703.844 742.416C720.117 742.416 733.309 729.301 733.309 713.123C733.309 696.945 720.117 683.83 703.844 683.83C687.57 683.83 674.378 696.945 674.378 713.123C674.378 729.301 687.57 742.416 703.844 742.416Z" fill="#D3D2EE"/>
<path d="M289.768 633.929C301.275 622.49 301.275 603.942 289.768 592.503C278.261 581.063 259.605 581.063 248.098 592.503C236.591 603.942 236.591 622.49 248.098 633.929C259.605 645.369 278.261 645.369 289.768 633.929Z" fill="#D3D2EE"/>
<path fill-rule="evenodd" clip-rule="evenodd" d="M1475 585.018C1474.87 591.457 1468.03 602.176 1457.04 614.305C1449.07 623.091 1439.8 631.584 1432.03 637.306L1431.55 637.66L1431.87 639.082C1433.76 647.333 1436.22 656.303 1435.29 665.348C1433.03 687.302 1415.79 712.072 1393.01 724.241C1384.7 728.885 1375.26 731.748 1365.57 732.994L1364.65 733.108C1357.43 733.956 1350.51 733.815 1346.29 732.947C1329.9 729.58 1316.02 718.163 1307.62 701.639C1307.59 701.584 1307.57 701.527 1307.56 701.468C1306.45 702.097 1304.96 702.798 1304.29 703.027L1302.43 703.654C1282.38 710.37 1262.51 715.988 1254.39 712.481C1251.3 711.147 1250.25 708.579 1251.54 705.13C1252.8 701.777 1256.28 697.458 1262.12 692.083L1262.44 691.788C1267.98 686.732 1280.27 677.494 1299.33 664.073L1299.33 663.827C1300.26 624.059 1331.27 593.743 1370.25 596.217C1382.17 596.974 1391.66 601.195 1396.4 603.786L1398.49 602.671C1418.05 592.253 1433.74 584.929 1445.72 580.546C1465.41 573.337 1475.15 576.708 1475 585.018ZM1446.36 584.818C1424.34 592.878 1389.54 611.007 1341.09 640.168L1339.62 641.055C1301.89 663.806 1276.91 681.091 1263.7 693.153L1263.05 693.752L1262.43 694.329C1252.51 703.663 1250.76 708.891 1255.13 710.782C1262.63 714.02 1282.75 708.562 1302.46 702.123L1304.29 701.522C1306.04 700.942 1307.21 700.609 1307.93 700.455C1307.96 700.433 1308 700.413 1308.03 700.394C1308.28 700.27 1308.56 700.266 1308.79 700.359C1308.84 700.369 1308.88 700.385 1308.9 700.407C1309.06 700.494 1309.19 700.628 1309.28 700.803C1317.43 716.844 1330.85 726.619 1346.67 729.867C1350.77 730.71 1357.7 730.833 1364.9 729.945L1365.34 729.891C1374.8 728.673 1384.02 727.145 1392.12 722.618C1414.38 710.725 1431.24 686.491 1433.44 665.159C1434.38 656.042 1433.18 647.094 1430 638.765C1429.73 638.948 1429.47 639.128 1429.21 639.304C1428.72 639.636 1428.91 639.097 1429.76 637.688C1429.81 637.505 1429.91 637.337 1430.05 637.211L1430.32 636.796C1430.41 636.651 1430.51 636.501 1430.61 636.344L1431.71 635.418C1442.1 626.667 1450.08 619.216 1455.66 613.063L1456.29 612.357C1466.61 600.853 1473.03 590.691 1473.13 584.984C1473.25 578.722 1464.96 578.009 1446.36 584.818ZM1352.99 701.953C1355.49 709.548 1351.71 714.434 1345.07 714.686C1338.93 714.919 1333.34 711.066 1333.63 705.591C1333.87 700.859 1337.13 695.799 1341.13 693.942C1345.97 691.694 1350.52 694.421 1352.99 701.953ZM1342.11 696.041C1338.91 697.527 1336.15 701.814 1335.95 705.71C1335.75 709.591 1340.05 712.559 1344.98 712.373C1350.14 712.176 1352.78 708.752 1350.78 702.673C1348.71 696.344 1345.54 694.448 1342.11 696.041ZM1403.71 686.475C1406.9 692.467 1406.06 698.354 1401.17 700.992L1401.03 701.064L1400.96 701.135C1394.4 707.609 1386.2 708.395 1380.85 703.702L1380.67 703.538C1374.51 697.917 1375.98 688.26 1385.78 680.69C1392.08 675.819 1399.79 679.086 1403.71 686.475ZM1387 682.259C1378.1 689.131 1376.85 697.361 1382.01 702.074C1385.72 705.454 1391.19 705.641 1396.3 702.361L1396.4 702.294L1396.36 702.287C1396.01 702.193 1395.73 701.909 1395.65 701.538L1395.63 701.444C1395.56 700.9 1395.96 700.406 1396.5 700.342C1397.75 700.194 1398.84 699.894 1399.76 699.464L1399.88 699.402L1400.03 699.245C1400.63 698.616 1401.22 697.932 1401.79 697.192L1401.98 696.943C1402.19 696.659 1402.52 696.521 1402.86 696.548L1402.88 696.55L1402.89 696.525C1404.09 694.175 1403.8 690.992 1402.06 687.603L1401.95 687.404C1398.54 680.978 1392.16 678.272 1387 682.259ZM1446.25 611.036C1445.73 612.848 1444.18 615.335 1441.79 618.28C1437.62 623.413 1431.37 629.388 1425.9 633.475L1427.11 632.146C1427.1 632.135 1427.09 632.121 1427.08 632.105L1426.66 631.339C1423.93 626.364 1420.88 621.456 1415.95 617.455C1403.2 622.693 1388.58 629.852 1375.26 637.338L1370.89 639.797C1338.74 657.942 1321.82 668.805 1303.73 682.16C1304.41 685.223 1305.27 688.212 1306.3 691.109C1306.47 691.563 1304.35 693.264 1303.97 693.054C1300.36 695.463 1294.71 697.212 1291.49 697.304C1288.35 697.392 1286.54 696.128 1287.47 693.607C1288.25 691.498 1291.2 688.489 1296.49 684.458L1297.09 684.002L1298.31 683.089C1318.23 668.233 1337.95 656.179 1374.34 635.725L1375.87 634.873C1400.83 620.992 1429.74 608.486 1442.98 607.332C1445.7 607.095 1446.94 608.595 1446.25 611.036ZM1301.31 683.957L1297.13 687.094C1293.41 689.906 1290.73 691.986 1289.28 693.32L1289.17 693.419C1287.4 695.072 1289.4 695.509 1291.44 695.452C1294.51 695.365 1299.22 693.041 1303.21 690.926C1302.48 688.651 1301.84 686.325 1301.31 683.957ZM1366.58 673.9C1367.08 674.025 1367.38 674.53 1367.26 675.025C1367.13 675.521 1366.62 675.821 1366.13 675.695C1363.63 675.063 1362.15 675.306 1361.67 675.976C1361.35 676.422 1361.53 677.18 1362.12 677.665C1362.59 678.043 1363.21 678.224 1363.63 678.132C1364 678.052 1364.21 677.767 1364.21 677.056C1364.21 676.544 1364.63 676.13 1365.14 676.13C1365.65 676.13 1366.07 676.544 1366.07 677.056C1366.07 678.602 1365.29 679.668 1364.03 679.942C1363.01 680.162 1361.83 679.816 1360.95 679.098C1359.65 678.039 1359.22 676.21 1360.16 674.902C1361.18 673.469 1363.42 673.1 1366.58 673.9ZM1325.74 670.5C1327.18 670.928 1327.79 672.024 1327.99 673.67L1328.01 673.848L1328.03 674.119C1328.04 674.164 1328.04 674.21 1328.04 674.26L1328.09 675.2L1328.11 675.412C1328.11 675.505 1328.12 675.581 1328.13 675.649L1328.16 675.79L1328.17 675.853L1328.2 675.876C1328.48 676.156 1328.56 676.594 1328.37 676.957L1328.33 677.039C1328.05 677.469 1327.47 677.592 1327.04 677.315C1326.45 676.934 1326.31 676.541 1326.24 675.415L1326.18 674.312C1326.17 674.212 1326.17 674.126 1326.16 674.029C1326.05 672.95 1325.79 672.447 1325.21 672.274C1323.59 671.79 1322.65 672.284 1322.36 673.366C1322.1 674.329 1322.48 675.342 1323.14 675.623L1323.31 675.686C1323.75 675.871 1323.98 676.36 1323.83 676.819C1323.67 677.306 1323.15 677.575 1322.66 677.42C1320.89 676.857 1320.05 674.762 1320.56 672.879C1321.14 670.779 1323.13 669.72 1325.74 670.5ZM1392.82 656.317C1395.4 659.923 1394.92 664.511 1390.79 666.587C1390.33 666.817 1389.77 666.634 1389.54 666.177C1389.31 665.721 1389.49 665.163 1389.95 664.934C1392.94 663.43 1393.28 660.157 1391.31 657.391C1389.39 654.703 1386.72 654.408 1384.88 657.311C1382.94 660.39 1383.08 662.197 1384.48 663.01C1385.59 663.657 1387.38 663.521 1387.87 662.993L1387.92 662.935C1388.22 662.518 1388.8 662.421 1389.22 662.717C1389.64 663.014 1389.73 663.592 1389.44 664.009C1388.4 665.455 1385.45 665.721 1383.54 664.611C1381.09 663.19 1380.86 660.197 1383.31 656.325C1385.93 652.178 1390.2 652.651 1392.82 656.317ZM1354.27 651.006C1354.76 651.006 1355.15 651.374 1355.2 651.843L1355.2 651.932C1355.2 652.095 1355.36 652.277 1355.9 652.676L1356.42 653.045C1356.98 653.454 1357.25 653.708 1357.51 654.112C1358.09 655.035 1358.43 655.975 1358.43 657.081C1358.43 659.911 1354.16 663.761 1349.5 665.475C1343.91 667.529 1339.34 666.006 1338.09 660.296C1337.98 659.796 1338.3 659.302 1338.8 659.194C1339.3 659.085 1339.8 659.402 1339.91 659.903C1340.87 664.334 1344.21 665.444 1348.85 663.737C1352.86 662.263 1356.57 658.923 1356.57 657.081C1356.57 656.368 1356.35 655.752 1355.94 655.102L1355.88 655.023C1355.79 654.904 1355.64 654.775 1355.37 654.578L1354.76 654.138C1353.74 653.39 1353.34 652.884 1353.34 651.932C1353.34 651.42 1353.76 651.006 1354.27 651.006ZM1358.64 599.668L1358.05 599.734C1326.32 603.536 1302.52 628.815 1301.23 662.738L1304.63 660.351C1314.4 653.519 1325.74 645.714 1338.65 636.937L1341.17 635.422C1348.68 630.908 1355.86 626.66 1362.72 622.674C1362.59 622.456 1362.56 622.187 1362.64 621.93C1363.12 620.472 1363.57 619.492 1364.38 618.511C1366.92 615.442 1370.4 613.942 1372.86 615.87C1373.11 616.06 1373.23 616.345 1373.22 616.631L1375.41 615.386C1382.31 611.474 1388.83 607.862 1394.99 604.544L1392.59 603.862C1389.02 602.861 1384.58 601.675 1380.16 600.761C1380.2 603.692 1378 606.032 1374.34 607.643C1371.23 609.011 1367.17 609.748 1364.29 609.576C1358.9 609.256 1355.87 604.545 1358.64 599.668ZM1414.29 639.892C1416.57 646.085 1414.69 651.716 1409.01 651.679C1400.92 651.627 1393.01 644.586 1394.29 638.278C1394.86 635.465 1396.98 632.976 1400.67 631.733C1406.57 629.749 1411.98 633.589 1414.29 639.892ZM1401.27 633.489C1398.22 634.515 1396.55 636.467 1396.11 638.645C1395.1 643.651 1401.98 649.781 1409.02 649.827C1413.06 649.853 1414.44 645.692 1412.55 640.529C1410.54 635.067 1406.05 631.88 1401.27 633.489ZM1332.9 611.562L1332.97 611.657L1333.42 612.366C1333.64 612.726 1333.83 613.079 1334.02 613.46C1336.08 617.654 1336.02 623.152 1332.54 630.785C1330.96 634.242 1326.94 638.889 1323.43 641.662C1318.94 645.203 1315.59 646.007 1311.6 645.569L1310.41 645.431L1310.27 645.417C1310.19 645.412 1310.14 645.412 1310.08 645.413L1310 645.417C1309.94 645.419 1309.92 645.417 1309.91 645.409V645.402L1309.88 645.45C1309.61 645.835 1309.09 645.962 1308.67 645.729C1308.22 645.48 1308.06 644.917 1308.31 644.469C1308.64 643.87 1309.2 643.6 1309.91 643.566C1310.1 643.558 1310.3 643.564 1310.54 643.584L1310.81 643.61L1311.58 643.703C1315.22 644.143 1318.12 643.49 1322.27 640.21C1325.57 637.606 1329.41 633.176 1330.85 630.018C1334.11 622.876 1334.16 617.955 1332.35 614.274C1332.23 614.029 1332.1 613.796 1331.97 613.562L1331.77 613.238L1331.38 612.624C1331.11 612.191 1331.24 611.619 1331.67 611.347C1332.08 611.092 1332.61 611.191 1332.9 611.562ZM1443.14 609.178C1437.2 609.696 1427.88 612.621 1417.14 616.971L1417.45 617.248C1420.44 619.92 1426.47 626.256 1428.36 630.775L1430.24 628.698C1434.88 623.556 1438.25 619.696 1440.34 617.115L1440.76 616.586C1442.77 614.057 1444.06 611.944 1444.46 610.534L1444.51 610.32C1444.76 609.302 1444.47 609.061 1443.14 609.178ZM1354.11 612.186C1356.43 613.301 1357.37 615.782 1355.85 618.031C1355.56 618.456 1354.98 618.568 1354.55 618.282C1354.13 617.996 1354.02 617.42 1354.3 616.996C1355.14 615.759 1354.67 614.511 1353.3 613.854C1351.87 613.163 1350.3 613.56 1349.48 615.07C1348.74 616.461 1348.69 618.344 1349.28 619.577C1349.81 620.66 1350.57 620.868 1351.73 619.994C1352.14 619.687 1352.73 619.768 1353.04 620.177C1353.34 620.586 1353.26 621.167 1352.85 621.474C1350.73 623.066 1348.63 622.494 1347.61 620.382C1346.75 618.612 1346.82 616.105 1347.85 614.195C1349.16 611.759 1351.83 611.084 1354.11 612.186ZM1365.81 619.69C1365.38 620.214 1365.07 620.766 1364.78 621.476C1367.18 620.089 1369.53 618.734 1371.85 617.412L1371.78 617.373L1371.72 617.327C1370.3 616.217 1367.79 617.295 1365.81 619.69ZM1361.85 599.385L1361.03 599.442L1360.98 599.511C1357.77 603.557 1359 606.841 1363.39 607.308C1366.55 607.643 1374.91 605.312 1375.9 604.495C1376.85 603.698 1378.06 601.867 1378.25 600.383C1375.41 599.851 1372.63 599.46 1370.15 599.333C1367.62 599.205 1365.12 599.207 1362.66 599.337L1361.85 599.385Z" fill="#6059CA"/>
<path d="M1446.23 585.079C1466.04 577.847 1465.59 579.993 1446.88 586.823C1424.72 594.91 1341.09 645.583 1341.09 645.583C1303.13 668.409 1300.3 664.886 1337.09 642.674L1339.36 641.308C1339.78 641.05 1381.67 614.789 1411.6 600.739C1414.97 599.158 1443.97 585.902 1446.23 585.079Z" fill="white"/>
<path fill-rule="evenodd" clip-rule="evenodd" d="M191.227 136.304C191.181 138.668 188.67 142.603 184.633 147.055C181.71 150.281 178.307 153.398 175.454 155.499L175.277 155.629L175.394 156.151C176.088 159.18 176.994 162.472 176.652 165.793C175.821 173.852 169.493 182.944 161.131 187.412C158.081 189.116 154.615 190.167 151.058 190.625L150.719 190.666C148.068 190.978 145.531 190.926 143.98 190.608C137.962 189.371 132.866 185.18 129.786 179.115C129.775 179.094 129.767 179.073 129.761 179.052C129.356 179.283 128.81 179.54 128.561 179.624L127.878 179.854C120.52 182.32 113.226 184.382 110.246 183.095C109.112 182.605 108.724 181.662 109.198 180.396C109.659 179.165 110.938 177.58 113.083 175.607L113.2 175.499C115.233 173.643 119.746 170.251 126.74 165.325L126.742 165.234C127.083 150.636 138.466 139.507 152.774 140.416C157.15 140.693 160.635 142.243 162.376 143.194L163.141 142.785C170.321 138.96 176.082 136.272 180.478 134.663C187.706 132.017 191.281 133.254 191.227 136.304ZM180.713 136.231C172.631 139.19 159.856 145.845 142.071 156.549L141.53 156.875C127.681 165.227 118.511 171.572 113.661 176L113.423 176.22L113.196 176.431C109.556 179.857 108.911 181.777 110.518 182.471C113.269 183.659 120.656 181.656 127.89 179.292L128.561 179.072C129.206 178.859 129.634 178.737 129.899 178.68C129.91 178.672 129.923 178.665 129.936 178.658C130.027 178.612 130.128 178.611 130.215 178.645C130.234 178.648 130.247 178.654 130.253 178.662C130.312 178.694 130.362 178.744 130.395 178.808C133.385 184.696 138.313 188.285 144.118 189.477C145.625 189.786 148.167 189.832 150.812 189.506L150.971 189.486C154.445 189.039 157.829 188.477 160.803 186.816C168.974 182.45 175.166 173.554 175.973 165.723C176.318 162.377 175.877 159.092 174.707 156.034C174.611 156.101 174.515 156.167 174.42 156.232C174.24 156.354 174.308 156.156 174.621 155.639C174.638 155.572 174.675 155.51 174.729 155.464L174.826 155.312C174.859 155.258 174.895 155.203 174.932 155.146L175.337 154.806C179.149 151.593 182.079 148.858 184.127 146.599L184.361 146.34C188.149 142.117 190.503 138.387 190.542 136.292C190.585 133.993 187.541 133.731 180.713 136.231ZM146.441 179.23C147.356 182.018 145.971 183.811 143.532 183.904C141.279 183.99 139.227 182.575 139.331 180.565C139.422 178.828 140.616 176.971 142.086 176.289C143.864 175.464 145.532 176.465 146.441 179.23ZM142.446 177.06C141.27 177.605 140.258 179.179 140.184 180.609C140.11 182.034 141.69 183.123 143.5 183.055C145.392 182.983 146.362 181.726 145.63 179.494C144.867 177.171 143.706 176.475 142.446 177.06ZM165.06 173.548C166.228 175.748 165.922 177.909 164.125 178.877L164.075 178.903L164.049 178.93C161.64 181.306 158.63 181.595 156.667 179.872L156.6 179.812C154.339 177.748 154.877 174.204 158.475 171.425C160.79 169.636 163.619 170.836 165.06 173.548ZM158.923 172C155.657 174.523 155.198 177.544 157.094 179.274C158.453 180.515 160.462 180.584 162.339 179.38L162.375 179.355L162.361 179.352C162.232 179.318 162.127 179.214 162.098 179.078L162.092 179.043C162.068 178.843 162.212 178.662 162.412 178.638C162.871 178.584 163.269 178.474 163.607 178.316L163.653 178.294L163.709 178.236C163.929 178.005 164.144 177.754 164.352 177.482L164.421 177.391C164.5 177.287 164.623 177.236 164.744 177.246L164.754 177.247L164.759 177.238C165.197 176.375 165.093 175.206 164.451 173.962L164.413 173.889C163.16 171.53 160.818 170.537 158.923 172ZM180.673 145.855C180.485 146.52 179.913 147.433 179.036 148.514C177.507 150.399 175.211 152.592 173.204 154.092L173.649 153.604C173.645 153.601 173.641 153.595 173.638 153.59L173.484 153.308C172.48 151.482 171.361 149.68 169.552 148.212C164.871 150.134 159.504 152.762 154.614 155.51L153.011 156.413C141.207 163.074 134.997 167.062 128.356 171.964C128.607 173.088 128.923 174.186 129.301 175.249C129.361 175.416 128.585 176.04 128.443 175.963C127.118 176.847 125.044 177.49 123.863 177.523C122.712 177.556 122.047 177.092 122.389 176.166C122.676 175.392 123.755 174.287 125.698 172.808L125.92 172.64L126.367 172.305C133.679 166.852 140.917 162.427 154.278 154.918L154.838 154.606C164.001 149.51 174.613 144.919 179.473 144.496C180.473 144.409 180.926 144.959 180.673 145.855ZM127.467 172.624L125.935 173.775C124.569 174.808 123.583 175.571 123.051 176.061L123.012 176.097C122.362 176.704 123.098 176.864 123.843 176.844C124.973 176.812 126.702 175.959 128.167 175.182C127.896 174.347 127.663 173.493 127.467 172.624ZM151.43 168.932C151.612 168.978 151.723 169.163 151.677 169.345C151.63 169.527 151.445 169.637 151.262 169.591C150.344 169.359 149.802 169.448 149.626 169.694C149.509 169.858 149.574 170.136 149.792 170.314C149.963 170.453 150.19 170.519 150.346 170.485C150.482 170.456 150.558 170.352 150.558 170.091C150.558 169.903 150.711 169.75 150.899 169.75C151.088 169.75 151.24 169.903 151.24 170.091C151.24 170.658 150.955 171.049 150.491 171.15C150.118 171.231 149.683 171.104 149.36 170.84C148.883 170.451 148.727 169.78 149.07 169.3C149.446 168.774 150.269 168.638 151.43 168.932ZM136.437 167.684C136.964 167.841 137.19 168.243 137.262 168.847L137.269 168.913L137.278 169.012C137.279 169.029 137.28 169.046 137.281 169.064L137.299 169.409L137.304 169.487C137.307 169.521 137.31 169.549 137.314 169.574L137.323 169.626L137.328 169.649L137.338 169.657C137.443 169.76 137.471 169.921 137.403 170.054L137.386 170.084C137.283 170.242 137.072 170.287 136.914 170.186C136.696 170.046 136.646 169.902 136.62 169.488L136.598 169.083C136.596 169.047 136.593 169.015 136.589 168.979C136.551 168.583 136.454 168.399 136.241 168.335C135.645 168.157 135.303 168.339 135.195 168.736C135.098 169.09 135.238 169.461 135.483 169.565L135.544 169.588C135.704 169.656 135.789 169.835 135.735 170.003C135.678 170.182 135.486 170.281 135.306 170.224C134.656 170.018 134.348 169.248 134.536 168.557C134.747 167.786 135.479 167.398 136.437 167.684ZM161.061 162.478C162.007 163.801 161.831 165.485 160.314 166.247C160.146 166.332 159.941 166.265 159.856 166.097C159.771 165.929 159.839 165.725 160.007 165.641C161.105 165.089 161.23 163.887 160.505 162.872C159.801 161.885 158.82 161.777 158.146 162.842C157.432 163.973 157.484 164.636 157.998 164.935C158.407 165.172 159.064 165.122 159.245 164.928L159.262 164.907C159.372 164.754 159.585 164.718 159.738 164.827C159.892 164.936 159.928 165.148 159.818 165.301C159.439 165.832 158.356 165.93 157.654 165.522C156.756 165 156.67 163.902 157.569 162.48C158.531 160.958 160.1 161.132 161.061 162.478ZM146.911 160.528C147.088 160.528 147.234 160.663 147.25 160.835L147.252 160.868C147.252 160.928 147.308 160.994 147.508 161.141L147.698 161.276C147.904 161.426 148.004 161.52 148.098 161.668C148.313 162.007 148.435 162.352 148.435 162.758C148.435 163.797 146.868 165.21 145.158 165.839C143.107 166.593 141.427 166.034 140.97 163.938C140.93 163.754 141.047 163.573 141.231 163.534C141.415 163.494 141.597 163.61 141.637 163.794C141.992 165.42 143.217 165.828 144.921 165.201C146.393 164.66 147.752 163.434 147.752 162.758C147.752 162.496 147.673 162.27 147.521 162.031L147.5 162.003C147.466 161.959 147.411 161.912 147.314 161.839L147.088 161.678C146.714 161.403 146.569 161.217 146.569 160.868C146.569 160.68 146.722 160.528 146.911 160.528ZM148.513 141.682L148.297 141.707C136.651 143.102 127.914 152.382 127.437 164.834L128.687 163.958C132.274 161.45 136.437 158.585 141.177 155.363L142.1 154.807C144.858 153.15 147.494 151.591 150.011 150.128C149.965 150.047 149.952 149.949 149.983 149.854C150.159 149.319 150.322 148.96 150.62 148.599C151.552 147.473 152.83 146.922 153.735 147.63C153.824 147.699 153.869 147.804 153.865 147.909L154.669 147.452C157.201 146.016 159.597 144.69 161.858 143.472L160.975 143.222C159.665 142.854 158.036 142.419 156.413 142.084C156.428 143.159 155.619 144.019 154.276 144.61C153.134 145.112 151.646 145.382 150.588 145.319C148.609 145.202 147.495 143.473 148.513 141.682ZM168.943 156.448C169.778 158.721 169.089 160.789 167.004 160.775C164.032 160.756 161.131 158.171 161.6 155.856C161.809 154.823 162.588 153.909 163.944 153.453C166.109 152.725 168.093 154.134 168.943 156.448ZM164.162 154.097C163.042 154.474 162.431 155.191 162.269 155.99C161.897 157.828 164.423 160.078 167.008 160.095C168.489 160.105 168.998 158.577 168.302 156.682C167.565 154.677 165.918 153.507 164.162 154.097ZM139.065 146.048L139.09 146.083L139.254 146.344C139.334 146.476 139.407 146.605 139.475 146.745C140.231 148.285 140.212 150.303 138.932 153.105C138.353 154.374 136.876 156.08 135.587 157.098C133.941 158.398 132.712 158.693 131.245 158.532L130.809 158.481L130.756 158.476C130.727 158.474 130.709 158.474 130.688 158.475L130.658 158.476C130.636 158.477 130.628 158.476 130.626 158.473V158.471L130.616 158.488C130.517 158.63 130.324 158.676 130.17 158.591C130.005 158.499 129.946 158.292 130.038 158.128C130.16 157.908 130.365 157.809 130.626 157.797C130.695 157.794 130.768 157.796 130.855 157.803L130.957 157.813L131.239 157.847C132.575 158.008 133.638 157.769 135.163 156.565C136.374 155.609 137.782 153.983 138.311 152.823C139.508 150.202 139.526 148.395 138.862 147.044C138.818 146.954 138.772 146.868 138.722 146.782L138.65 146.664L138.507 146.438C138.407 146.279 138.455 146.069 138.615 145.97C138.765 145.876 138.959 145.912 139.065 146.048ZM179.533 145.173C177.351 145.363 173.931 146.437 169.987 148.034L170.103 148.136C171.2 149.116 173.414 151.442 174.107 153.101L174.798 152.339C176.501 150.451 177.737 149.034 178.505 148.087L178.66 147.893C179.395 146.964 179.869 146.189 180.016 145.671L180.036 145.592C180.127 145.219 180.022 145.13 179.533 145.173ZM146.852 146.278C147.702 146.687 148.046 147.598 147.488 148.423C147.382 148.579 147.17 148.62 147.014 148.515C146.857 148.41 146.816 148.199 146.922 148.043C147.229 147.589 147.055 147.131 146.555 146.89C146.028 146.636 145.451 146.782 145.153 147.336C144.878 147.847 144.859 148.538 145.078 148.991C145.271 149.388 145.551 149.464 145.978 149.144C146.129 149.031 146.343 149.061 146.457 149.211C146.57 149.361 146.54 149.574 146.389 149.687C145.61 150.271 144.839 150.062 144.464 149.286C144.149 148.636 144.174 147.716 144.551 147.015C145.032 146.121 146.012 145.873 146.852 146.278ZM151.146 149.032C150.987 149.224 150.874 149.427 150.768 149.688C151.648 149.179 152.512 148.681 153.362 148.196L153.337 148.182L153.313 148.165C152.792 147.757 151.874 148.153 151.146 149.032ZM149.691 141.579L149.392 141.599L149.372 141.625C148.193 143.11 148.647 144.315 150.258 144.487C151.415 144.61 154.487 143.754 154.848 143.454C155.199 143.162 155.643 142.49 155.711 141.945C154.668 141.749 153.649 141.606 152.739 141.559C151.809 141.512 150.892 141.513 149.991 141.561L149.691 141.579Z" fill="#6059CA"/>
<path d="M180.667 136.327C187.94 133.672 187.773 134.46 180.904 136.967C172.771 139.936 142.072 158.537 142.072 158.537C128.138 166.916 127.096 165.623 140.602 157.469L141.434 156.968C141.591 156.873 156.968 147.233 167.956 142.075C169.192 141.495 179.839 136.629 180.667 136.327Z" fill="white"/>
<rect x="-16" width="1474" height="134" fill="white"/>
</g>
<defs>
<clipPath id="clip0_102_7">
<rect width="1440" height="1018" fill="white"/>
</clipPath>
</defs>
</svg>
