<svg xmlns="http://www.w3.org/2000/svg" version="1.1" xmlns:xlink="http://www.w3.org/1999/xlink" xmlns:svgjs="http://svgjs.dev/svgjs" width="2000" height="585" viewBox="0 0 2000 585"><g transform="matrix(1,0,0,1,-1.2121201401273538,-1.2078594459953251)"><svg viewBox="0 0 396 116" data-background-color="#f7f6fe" preserveAspectRatio="xMidYMid meet" height="585" width="2000" xmlns="http://www.w3.org/2000/svg" xmlns:xlink="http://www.w3.org/1999/xlink"><g id="tight-bounds" transform="matrix(1,0,0,1,0.23999978774520514,0.23950717219736362)"><svg viewBox="0 0 395.52 115.52098565560526" height="115.52098565560526" width="395.52"><g><svg viewBox="0 0 580.8638865615799 169.65505842268252" height="115.52098565560526" width="395.52"><g transform="matrix(1,0,0,1,185.34388656157995,23.447262054075523)"><svg viewBox="0 0 395.52 122.76053431453147" height="122.76053431453147" width="395.52"><g id="textblocktransform"><svg viewBox="0 0 395.52 122.76053431453147" height="122.76053431453147" width="395.52" id="textblock"><g><svg viewBox="0 0 395.52 66.49809342331056" height="66.49809342331056" width="395.52"><g transform="matrix(1,0,0,1,0,0)"><svg width="395.52" viewBox="2.2 -38.38 231.87630100172802 38.99" height="66.49809342331056" data-palette-color="#000000"><g class="wordmark-text-0" data-fill-palette-color="primary" id="text-0"><path d="M18.6-5.98L18.6-5.98Q20.39-5.98 21.4-6.35 22.41-6.71 22.97-7.25 23.54-7.79 23.95-8.33L23.95-8.33Q24.34-8.81 24.6-9.06 24.85-9.3 25.32-9.4L25.32-9.4Q25.71-9.52 26.57-9.56 27.44-9.59 28.31-9.59 29.17-9.59 29.52-9.55L29.52-9.55Q30.03-9.52 30.22-9.35L30.22-9.35Q30.42-9.18 30.47-8.62L30.47-8.62Q30.54-7.84 30.55-6.76 30.57-5.69 30.52-4.91L30.52-4.91Q30.49-4.66 30.43-4.49 30.37-4.32 30.18-3.98L30.18-3.98Q29.93-3.59 29.22-2.84 28.52-2.1 27.15-1.31 25.78-0.51 23.62 0.05 21.46 0.61 18.31 0.61L18.31 0.61Q14.94 0.61 12.01-0.26 9.08-1.12 6.87-3.17 4.66-5.22 3.43-8.72 2.2-12.21 2.2-17.43L2.2-17.43Q2.2-23.24 4.21-27.31 6.23-31.37 9.94-33.5 13.65-35.62 18.73-35.62L18.73-35.62Q22.29-35.62 24.45-34.89 26.61-34.16 27.73-33.17 28.86-32.18 29.32-31.45L29.32-31.45Q29.49-31.18 29.57-30.97 29.64-30.76 29.66-30.32L29.66-30.32Q29.74-29.74 29.7-28.61 29.66-27.49 29.52-26.64L29.52-26.64Q29.42-26.1 29.2-25.93L29.2-25.93Q29.1-25.83 28.86-25.76 28.61-25.68 28.13-25.68L28.13-25.68Q27.34-25.68 26.37-25.74 25.39-25.81 24.9-25.88L24.9-25.88Q24.32-25.98 24.05-26.16 23.78-26.34 23.51-26.73L23.51-26.73Q23.07-27.37 22-28.2 20.92-29.03 18.46-29.03L18.46-29.03Q14.99-29.03 12.74-26.35 10.5-23.68 10.5-17.7L10.5-17.7Q10.5-11.74 12.85-8.86 15.21-5.98 18.6-5.98ZM43.04-16.46L43.04-1.29Q43.04-0.56 42.73-0.28 42.43 0 41.7 0L41.7 0 36.67 0Q35.94 0 35.63-0.28 35.32-0.56 35.32-1.29L35.32-1.29 35.32-34.33Q35.32-34.91 35.57-35.23L35.57-35.23Q36.59-36.57 38.57-38.13L38.57-38.13Q38.91-38.38 39.18-38.38L39.18-38.38Q39.5-38.38 39.79-38.13L39.79-38.13Q40.84-37.33 41.56-36.62 42.28-35.91 42.8-35.23L42.8-35.23Q43.04-34.91 43.04-34.33L43.04-34.33 43.04-22.49 43.14-22.49Q43.67-23.19 44.53-23.91 45.38-24.63 46.81-25.12 48.24-25.61 50.46-25.61L50.46-25.61Q52.71-25.61 54.78-24.68 56.86-23.75 58.18-21.56 59.49-19.36 59.49-15.55L59.49-15.55 59.49-1.29Q59.49-0.56 59.19-0.28 58.88 0 58.15 0L58.15 0 53.12 0Q52.39 0 52.08-0.28 51.78-0.56 51.78-1.29L51.78-1.29 51.78-14.21Q51.78-16.92 50.66-18.15 49.53-19.38 47.6-19.38L47.6-19.38Q45.7-19.38 44.65-18.55 43.6-17.72 43.04-16.46L43.04-16.46ZM72.55 0.61L72.55 0.61Q68.96 0.61 66.85-1.4 64.74-3.42 64.74-6.96L64.74-6.96Q64.74-8.79 65.41-10.36 66.08-11.94 67.76-13.15 69.43-14.36 72.44-15.09 75.46-15.82 80.15-15.94L80.15-15.94Q80.15-18.16 79.04-19.14 77.92-20.12 75.7-20.12L75.7-20.12Q73.7-20.12 72.43-19.43 71.16-18.75 70.84-18.51L70.84-18.51Q70.5-18.21 70.01-18.29L70.01-18.29Q69.36-18.38 68.61-18.63 67.87-18.87 67.01-19.19L67.01-19.19Q66.89-19.24 66.74-19.35 66.6-19.46 66.57-19.68L66.57-19.68Q66.57-19.8 66.6-19.98 66.62-20.17 66.72-20.65L66.72-20.65Q66.82-21.14 67.01-21.86 67.21-22.58 67.38-22.97L67.38-22.97Q67.6-23.39 68.11-23.75L68.11-23.75Q68.53-24.1 70.62-24.85 72.72-25.61 76.7-25.61L76.7-25.61Q87.67-25.61 87.67-14.94L87.67-14.94 87.67-1.12Q87.67-0.66 87.41-0.33 87.15 0 86.54 0L86.54 0 82.88 0Q82.49 0 82.18-0.11 81.88-0.22 81.61-0.54L81.61-0.54 80.1-2.49 79.93-2.49Q78.8-0.85 76.91-0.12 75.02 0.61 72.55 0.61ZM75.24-5.05L75.24-5.05Q77.49-5.05 78.63-6.2 79.78-7.35 80.1-8.57L80.1-8.57 80.1-11.28Q76.7-11.28 75.01-10.75 73.31-10.23 72.75-9.39 72.19-8.54 72.19-7.57L72.19-7.57Q72.19-6.15 73.07-5.6 73.95-5.05 75.24-5.05ZM104.14 0.61L104.14 0.61Q95.99 0.61 95.99-7.86L95.99-7.86 95.99-19.31 93.23-19.31Q92.5-19.31 92.22-19.62 91.94-19.92 91.94-20.65L91.94-20.65 91.94-23.66Q91.94-24.39 92.22-24.69 92.5-25 93.23-25L93.23-25 95.99-25 95.99-28.93Q95.99-29.52 96.23-29.83L96.23-29.83Q97.26-31.18 99.24-32.74L99.24-32.74Q99.58-32.98 99.85-32.98L99.85-32.98Q100.14-32.98 100.43-32.74L100.43-32.74Q101.48-31.93 102.2-31.23 102.92-30.52 103.43-29.83L103.43-29.83Q103.68-29.52 103.68-28.93L103.68-28.93 103.68-25 108-25Q108.73-25 109.01-24.69 109.29-24.39 109.29-23.66L109.29-23.66 109.29-20.65Q109.29-19.92 109.01-19.62 108.73-19.31 108-19.31L108-19.31 103.68-19.31 103.68-9.2Q103.68-5.3 106.51-5.3L106.51-5.3Q106.95-5.3 107.32-5.38 107.68-5.47 107.95-5.57L107.95-5.57Q108.46-5.76 108.67-5.71 108.88-5.66 109.05-5.18L109.05-5.18 110.47-1.39Q110.69-0.78 110.17-0.51L110.17-0.51Q109.81-0.34 108.4 0.13 107 0.61 104.14 0.61ZM130.17 0.61L130.17 0.61Q125.09 0.61 121.33-1.34 117.57-3.3 115.51-7.23 113.44-11.16 113.44-17.04L113.44-17.04Q113.44-26.39 118.01-30.99 122.57-35.6 130.73-35.6L130.73-35.6Q138.37-35.6 142.81-31.09 147.26-26.59 147.26-17.75L147.26-17.75Q147.26-11.5 145.18-7.43 143.11-3.37 139.27-1.38 135.44 0.61 130.17 0.61ZM130.31-5.98L130.31-5.98Q134.71-5.98 136.83-9.13 138.95-12.28 138.95-17.31L138.95-17.31Q138.95-23.14 136.95-26.07 134.95-29 130.51-29L130.51-29Q121.74-29 121.74-17.46L121.74-17.46Q121.74-12.3 123.85-9.14 125.97-5.98 130.31-5.98ZM160.46-22.17L160.46-20.36 160.56-20.36Q162.39-25.44 167.15-25.44L167.15-25.44Q167.76-25.44 168.15-25.38 168.54-25.32 168.69-25.27L168.69-25.27Q169.05-25.15 169.05-24.71L169.05-24.71 169.05-18.82Q169.05-18.07 168.18-18.41L168.18-18.41Q167.88-18.53 167.33-18.66 166.78-18.8 165.81-18.8L165.81-18.8Q163.29-18.8 161.88-16.96 160.46-15.11 160.46-11.94L160.46-11.94 160.46-1.29Q160.46-0.56 160.16-0.28 159.85 0 159.12 0L159.12 0 154.09 0Q153.36 0 153.05-0.28 152.75-0.56 152.75-1.29L152.75-1.29 152.75-21.75Q152.75-22.34 152.99-22.66L152.99-22.66Q153.5-23.34 154.22-24.05 154.94-24.76 155.99-25.56L155.99-25.56Q156.19-25.71 156.38-25.76 156.58-25.81 156.73-25.81L156.73-25.81Q157.07-25.81 157.41-25.56L157.41-25.56Q159.44-23.97 160.24-22.85L160.24-22.85Q160.46-22.56 160.46-22.17L160.46-22.17ZM184.16 0.61L184.16 0.61Q181.02 0.61 178.87 0.15 176.72-0.32 175.25-1 173.79-1.68 172.69-2.37L172.69-2.37 172.69-34.33Q172.69-34.91 172.93-35.23L172.93-35.23Q173.96-36.57 175.94-38.13L175.94-38.13Q176.28-38.38 176.55-38.38L176.55-38.38Q176.86-38.38 177.16-38.13L177.16-38.13Q178.21-37.33 178.93-36.62 179.65-35.91 180.16-35.23L180.16-35.23Q180.4-34.91 180.4-34.33L180.4-34.33 180.4-22.49 180.5-22.49Q181.48-23.73 183.21-24.67 184.95-25.61 188.05-25.61L188.05-25.61Q191.51-25.61 193.76-24.01 196.01-22.41 197.1-19.62 198.2-16.82 198.2-13.21L198.2-13.21Q198.2-9.3 196.91-6.16 195.61-3.03 192.55-1.21 189.49 0.61 184.16 0.61ZM184.48-5.3L184.48-5.3Q187.31-5.3 188.8-7.19 190.29-9.08 190.29-12.6L190.29-12.6Q190.29-16.16 188.96-17.77 187.63-19.38 185.12-19.38L185.12-19.38Q183.09-19.38 182.03-18.55 180.97-17.72 180.4-16.46L180.4-16.46 180.4-6.37Q180.94-5.98 181.93-5.64 182.92-5.3 184.48-5.3ZM202.33-33.2L202.33-33.2Q202.33-33.52 202.52-33.76 202.72-34.01 203.03-34.4L203.03-34.4Q203.72-35.18 204.62-36.05 205.52-36.91 206.45-37.72L206.45-37.72Q207.04-38.18 207.33-38.18L207.33-38.18Q207.62-38.18 208.23-37.72L208.23-37.72Q210.21-36.01 211.6-34.4L211.6-34.4Q211.92-34.03 212.13-33.78 212.34-33.52 212.34-33.2L212.34-33.2Q212.34-32.89 212.13-32.64 211.92-32.4 211.58-31.98L211.58-31.98Q210.92-31.23 210.04-30.36 209.16-29.49 208.23-28.71L208.23-28.71Q207.89-28.42 207.7-28.33 207.5-28.25 207.33-28.25L207.33-28.25Q207.16-28.25 206.98-28.33 206.79-28.42 206.4-28.71L206.4-28.71Q205.43-29.49 204.57-30.36 203.72-31.23 203.03-32.03L203.03-32.03Q202.72-32.42 202.52-32.65 202.33-32.89 202.33-33.2ZM211.16-23.71L211.16-1.29Q211.16-0.56 210.86-0.28 210.55 0 209.82 0L209.82 0 204.79 0Q204.06 0 203.75-0.28 203.45-0.56 203.45-1.29L203.45-1.29 203.45-23.71Q203.45-24.44 203.75-24.72 204.06-25 204.79-25L204.79-25 209.82-25Q210.55-25 210.86-24.72 211.16-24.44 211.16-23.71L211.16-23.71ZM227.69 0.61L227.69 0.61Q219.54 0.61 219.54-7.86L219.54-7.86 219.54-19.31 216.78-19.31Q216.04-19.31 215.76-19.62 215.48-19.92 215.48-20.65L215.48-20.65 215.48-23.66Q215.48-24.39 215.76-24.69 216.04-25 216.78-25L216.78-25 219.54-25 219.54-28.93Q219.54-29.52 219.78-29.83L219.78-29.83Q220.81-31.18 222.78-32.74L222.78-32.74Q223.12-32.98 223.39-32.98L223.39-32.98Q223.69-32.98 223.98-32.74L223.98-32.74Q225.03-31.93 225.75-31.23 226.47-30.52 226.98-29.83L226.98-29.83Q227.23-29.52 227.23-28.93L227.23-28.93 227.23-25 231.55-25Q232.28-25 232.56-24.69 232.84-24.39 232.84-23.66L232.84-23.66 232.84-20.65Q232.84-19.92 232.56-19.62 232.28-19.31 231.55-19.31L231.55-19.31 227.23-19.31 227.23-9.2Q227.23-5.3 230.06-5.3L230.06-5.3Q230.5-5.3 230.86-5.38 231.23-5.47 231.5-5.57L231.5-5.57Q232.01-5.76 232.22-5.71 232.43-5.66 232.6-5.18L232.6-5.18 234.01-1.39Q234.23-0.78 233.72-0.51L233.72-0.51Q233.35-0.34 231.95 0.13 230.55 0.61 227.69 0.61Z" fill="#000000" data-fill-palette-color="primary"></path></g></svg></g></svg></g><g transform="matrix(1,0,0,1,0,82.19669732631203)"><svg viewBox="0 0 199.4216734832473 40.56383698821944" height="40.56383698821944" width="199.4216734832473"><g transform="matrix(1,0,0,1,0,0)"><svg width="199.4216734832473" viewBox="2.75 -26.55 140.58454104682 28.6" height="40.56383698821944" data-palette-color="#6b7280"><path d="M6.3 0.95L6.3 0.95Q2.75 0.2 2.75-2.35L2.75-2.35Q2.75-3.85 3.7-6.7L3.7-6.7Q4.4-8.85 5.63-11.63 6.85-14.4 8.7-17.8L8.7-17.8Q13.15-26.15 15.45-26.5L15.45-26.5Q15.65-26.55 16.1-26.55L16.1-26.55Q18.55-26.55 18.55-24.25L18.55-24.25Q18.55-21.1 13.25-15.3L13.25-15.3Q10.3-12 6.75-9.45L6.75-9.45Q4.65-4.45 4.65-2.1L4.65-2.1Q4.65-0.55 5.6-0.25L5.6-0.25Q6.35-0.05 9.1-2.05L9.1-2.05Q12.25-4.35 14.5-7.65L14.5-7.65Q14.85-8.15 15.15-8.15L15.15-8.15Q15.35-8.15 15.35-7.95L15.35-7.95Q15.35-7.75 15.1-7.35L15.1-7.35Q13.2-4.3 10.15-1.55L10.15-1.55Q7.2 1.15 6.3 0.95ZM7.3-10.8L7.3-10.8Q9.1-12.15 10.3-13.5L10.3-13.5 13.25-17Q17.35-21.85 17.35-24.15L17.35-24.15Q17.35-24.6 16.85-24.6L16.85-24.6Q16-24.6 14.15-22.15L14.15-22.15Q13.6-21.35 13-20.6 12.4-19.85 11.8-19.05L11.8-19.05Q11.05-17.95 10.43-16.9 9.8-15.85 9.25-14.75L9.25-14.75Q9.1-14.55 8.63-13.55 8.15-12.55 7.3-10.8ZM15.75 0.4L15.75 0.4Q14.3 0.4 13.2-0.3L13.2-0.3Q11.75-1.3 11.75-3.2L11.75-3.2Q11.75-5.25 13.5-8.2L13.5-8.2Q15.85-12.05 20.4-14.95L20.4-14.95Q21.55-15.7 22.7-15.7L22.7-15.7Q24.2-15.7 24.85-14.75L24.85-14.75Q25.25-14.2 25.25-13.5L25.25-13.5Q25.25-11.4 21.85-8.9L21.85-8.9Q20.85-8.2 19.72-7.63 18.6-7.05 17.3-6.8L17.3-6.8 15.15-6.35Q13.95-4.2 13.95-2.75L13.95-2.75Q13.95-0.75 16.3-0.75L16.3-0.75Q18.15-0.75 20.8-2.3L20.8-2.3Q24.35-4.35 26.9-8L26.9-8Q27.3-8.6 27.65-8.6L27.65-8.6Q27.8-8.6 27.8-8.4L27.8-8.4Q27.8-8.15 27.45-7.65L27.45-7.65Q22.6-0.35 16.5 0.35L16.5 0.35Q16.3 0.4 16.12 0.4 15.95 0.4 15.75 0.4ZM15.75-7.2L15.75-7.2Q17.15-7.2 19.35-8.45L19.35-8.45Q22.45-10.2 23.7-12.95L23.7-12.95Q24.05-13.65 24.05-14.1L24.05-14.1Q24.05-14.55 23.7-14.55L23.7-14.55Q23.05-14.55 21.05-12.95L21.05-12.95Q19.6-11.7 18.22-10.28 16.85-8.85 15.6-7.25L15.6-7.25Q15.55-7.2 15.75-7.2ZM29.4 0.85L29.4 0.85Q25.55 0 25.55-2.65L25.55-2.65Q25.55-3.4 25.8-4.42 26.05-5.45 26.6-6.7L26.6-6.7 30.84-16.25Q30.1-16.15 29.2-16.05 28.3-15.95 27.2-15.85L27.2-15.85Q27-15.85 27-16.2L27-16.2Q27-16.9 27.25-17L27.25-17 31.45-17.6 34.7-24.2Q35.15-25.1 37.5-25.1L37.5-25.1Q38.59-25.1 38.45-24.85L38.45-24.85Q37.34-23.1 36.22-21.33 35.09-19.55 34-17.8L34-17.8Q34.15-17.85 34.65-17.9 35.15-17.95 35.95-18L35.95-18Q36.55-18.05 37.09-18.07 37.65-18.1 38.15-18.1L38.15-18.1Q40.25-18.1 40.15-17.9L40.15-17.9Q39.8-17.55 33.34-16.55L33.34-16.55Q27.9-6.25 27.9-2L27.9-2Q27.9-0.45 28.8-0.15L28.8-0.15Q29.5 0.05 32.34-2L32.34-2Q34-3.2 35.34-4.63 36.7-6.05 37.8-7.65L37.8-7.65Q38.15-8.15 38.45-8.15L38.45-8.15Q38.65-8.15 38.65-7.95L38.65-7.95Q38.65-7.75 38.4-7.35L38.4-7.35Q36.5-4.3 33.34-1.6L33.34-1.6Q30.3 1.05 29.4 0.85ZM40.94-15.85L40.94-15.85Q40.79-15.85 40.79-15.95L40.79-15.95Q40.79-16.15 41.42-16.75 42.04-17.35 42.64-18.15L42.64-18.15Q43.09-18.8 43.42-19.5 43.74-20.2 43.74-20.75L43.74-20.75Q43.74-21.3 43.52-21.55 43.29-21.8 42.84-22.05L42.84-22.05Q42.49-22.3 42.17-22.63 41.84-22.95 41.84-23.5L41.84-23.5Q41.84-24.4 43.14-25.2L43.14-25.2Q43.54-25.5 43.94-25.5L43.94-25.5Q44.79-25.5 45.59-25 46.39-24.5 46.39-23.3L46.39-23.3Q46.39-22.4 45.84-21.15 45.29-19.9 44.44-18.7 43.59-17.5 42.67-16.68 41.74-15.85 40.94-15.85ZM52.19 2.05L52.19 2.05Q51.99 2.05 51.99 1.9L51.99 1.9Q51.99 1.25 55.39-0.5L55.39-0.5Q56.24-0.9 56.94-1.33 57.64-1.75 58.14-2.1L58.14-2.1Q61.19-4.35 61.19-6L61.19-6Q61.19-7.25 58.74-7.25L58.74-7.25Q53.04-7.35 53.04-9.75L53.04-9.75Q53.04-10.8 53.94-11.75L53.94-11.75Q54.99-12.95 57.44-14.05L57.44-14.05Q60.09-15.25 62.29-15.25L62.29-15.25Q64.24-15.25 65.24-14.3L65.24-14.3Q65.69-13.85 65.69-13.2L65.69-13.2Q65.69-12.5 65.24-11.95 64.79-11.4 64.24-11.4L64.24-11.4Q63.24-11.4 63.14-12.75L63.14-12.75Q63.14-13.7 62.84-13.85 62.54-14 61.24-14L61.24-14Q59.59-14 57.54-12.9L57.54-12.9Q55.09-11.65 55.24-9.9L55.24-9.9Q55.34-8.9 59.04-8.9L59.04-8.9Q64.09-8.9 64.09-6.45L64.09-6.45Q64.09-3.8 59.74-1.15L59.74-1.15Q56.99 0.55 53.04 1.85L53.04 1.85Q52.49 2.05 52.19 2.05ZM81.99 0.4L81.99 0.4Q80.94 0.4 79.86-0.1 78.79-0.6 78.04-1.63 77.29-2.65 77.29-4.1L77.29-4.1Q77.29-6.1 78.79-8.65 80.29-11.2 82.74-13.15L82.74-13.15Q84.29-14.4 85.34-14.85L85.34-14.85Q86.84-15.5 88.19-15.5L88.19-15.5Q89.89-15.5 90.84-14.4L90.84-14.4Q91.34-13.9 91.34-13.35L91.34-13.35Q91.34-12.45 90.49-12.45L90.49-12.45Q89.89-12.45 89.59-13.2L89.59-13.2Q89.24-14.25 88.09-14.25L88.09-14.25Q86.69-14.25 84.94-12.7L84.94-12.7Q82.99-11.15 81.39-8.45L81.39-8.45Q79.64-5.55 79.64-3.35L79.64-3.35Q79.64-1.2 80.94-0.65L80.94-0.65Q81.39-0.45 82.09-0.45L82.09-0.45Q84.49-0.45 87.54-2.45L87.54-2.45Q90.89-4.6 93.29-8L93.29-8Q93.84-8.75 94.29-8.75L94.29-8.75Q94.44-8.75 94.44-8.65L94.44-8.65Q94.44-8.4 93.99-7.7L93.99-7.7Q91.69-4.15 87.54-1.6L87.54-1.6Q85.64-0.45 84.51-0.03 83.39 0.4 81.99 0.4ZM102.13 0.5L102.13 0.5Q101.03 0.6 100.03-0.08 99.03-0.75 99.03-1.6L99.03-1.6Q99.03-3.15 101.98-7.55L101.98-7.55Q105.23-12.45 105.23-13.2L105.23-13.2Q105.23-13.65 104.73-13.65L104.73-13.65Q103.43-13.65 99.73-9.8L99.73-9.8Q97.53-7.6 95.61-5.08 93.68-2.55 91.98 0.25L91.98 0.25Q91.88 0.35 91.43 0.35L91.43 0.35Q89.23 0.35 89.43-0.25L89.43-0.25Q90.28-2.55 91.58-5.4 92.88-8.25 94.68-11.75L94.68-11.75Q100.63-23.25 102.78-24.9L102.78-24.9Q103.38-25.35 104.43-25.35L104.43-25.35Q106.18-25.35 106.18-24.65L106.18-24.65Q106.18-24.5 105.88-24.25L105.88-24.25Q99.33-19.4 94.28-6L94.28-6Q94.33-6.05 94.81-6.48 95.28-6.9 96.18-7.75L96.18-7.75Q97.13-8.6 97.81-9.33 98.48-10.05 98.98-10.6L98.98-10.6Q101.43-13.35 104.38-14.7L104.38-14.7Q105.08-15 105.98-15L105.98-15Q108.03-15 108.03-13.5L108.03-13.5Q108.03-12.55 107.08-11.25L107.08-11.25Q101.68-3.7 101.68-1.1L101.68-1.1Q101.68-0.55 102.03-0.4L102.03-0.4Q102.83-0.05 105.98-2.05L105.98-2.05Q109.68-4.45 112.28-8L112.28-8Q112.83-8.75 113.28-8.75L113.28-8.75Q113.43-8.75 113.43-8.65L113.43-8.65Q113.43-8.4 112.98-7.7L112.98-7.7Q110.78-4.25 106.88-1.6L106.88-1.6Q103.38 0.7 102.13 0.5ZM121.93 0.55L121.93 0.55Q120.93 0.55 120.11-0.1 119.28-0.75 119.13-1.35L119.13-1.35Q118.98-2.05 120.98-6.35L120.98-6.35 119.83-4.7Q119.08-3.6 118.33-2.75 117.58-1.9 116.93-1.25L116.93-1.25Q115.03 0.55 113.73 0.25L113.73 0.25Q110.73-0.45 110.73-3.15L110.73-3.15Q110.73-5.3 112.78-8.65L112.78-8.65Q113.43-9.65 114.43-10.65 115.43-11.65 116.73-12.6L116.73-12.6Q120.08-15.05 123.18-15.05L123.18-15.05Q125.08-15.05 126.78-14.05L126.78-14.05Q127.33-13.65 127.33-13.2L127.33-13.2Q127.33-12.85 127.13-12.85L127.13-12.85Q127.08-12.85 127.03-12.9L127.03-12.9Q125.98-14.05 124.23-14.05L124.23-14.05Q122.18-14.05 119.78-12.5 117.38-10.95 115.48-8.35L115.48-8.35Q112.78-4.6 112.78-2.25L112.78-2.25Q112.78-0.9 113.73-0.55L113.73-0.55Q114.93-0.05 118.83-5L118.83-5Q120.43-6.95 121.51-8.5 122.58-10.05 123.23-11.15L123.23-11.15Q123.53-11.7 124.33-11.7L124.33-11.7Q125.83-11.7 125.83-10.8L125.83-10.8Q125.83-10.65 125.78-10.6L125.78-10.6Q121.43-3.7 121.43-1.25L121.43-1.25Q121.43-0.65 121.78-0.6L121.78-0.6Q122.83-0.3 125.28-2.15L125.28-2.15Q128.23-4.35 130.83-8L130.83-8Q131.38-8.75 131.83-8.75L131.83-8.75Q131.98-8.75 131.98-8.65L131.98-8.65Q131.98-8.4 131.53-7.7L131.53-7.7Q130.48-6.05 129.21-4.6 127.93-3.15 126.38-1.9L126.38-1.9Q124.18-0.05 122.78 0.4L122.78 0.4Q122.43 0.55 121.93 0.55ZM132.58 0.85L132.58 0.85Q128.73 0 128.73-2.65L128.73-2.65Q128.73-3.4 128.98-4.42 129.23-5.45 129.78-6.7L129.78-6.7 134.03-16.25Q133.28-16.15 132.38-16.05 131.48-15.95 130.38-15.85L130.38-15.85Q130.18-15.85 130.18-16.2L130.18-16.2Q130.18-16.9 130.43-17L130.43-17 134.63-17.6 137.88-24.2Q138.33-25.1 140.68-25.1L140.68-25.1Q141.78-25.1 141.63-24.85L141.63-24.85Q140.53-23.1 139.4-21.33 138.28-19.55 137.18-17.8L137.18-17.8Q137.33-17.85 137.83-17.9 138.33-17.95 139.13-18L139.13-18Q139.73-18.05 140.28-18.07 140.83-18.1 141.33-18.1L141.33-18.1Q143.43-18.1 143.33-17.9L143.33-17.9Q142.98-17.55 136.53-16.55L136.53-16.55Q131.08-6.25 131.08-2L131.08-2Q131.08-0.45 131.98-0.15L131.98-0.15Q132.68 0.05 135.53-2L135.53-2Q137.18-3.2 138.53-4.63 139.88-6.05 140.98-7.65L140.98-7.65Q141.33-8.15 141.63-8.15L141.63-8.15Q141.83-8.15 141.83-7.95L141.83-7.95Q141.83-7.75 141.58-7.35L141.58-7.35Q139.68-4.3 136.53-1.6L136.53-1.6Q133.48 1.05 132.58 0.85Z" opacity="1" transform="matrix(1,0,0,1,0,0)" fill="#6b7280" class="slogan-text-1" data-fill-palette-color="secondary" id="text-1"></path></svg></g></svg></g></svg></g></svg></g><g><svg viewBox="0 0 169.64528265857848 169.65505842268252" height="169.65505842268252" width="169.64528265857848"><g><svg xmlns="http://www.w3.org/2000/svg" xmlns:xlink="http://www.w3.org/1999/xlink" version="1.1" x="0" y="0" viewBox="1.5030737710552464 1.5 92.99464120863753 93" enable-background="new 0 0 96 96" xml:space="preserve" height="169.65505842268252" width="169.64528265857848" class="icon-icon-0" data-fill-palette-color="accent" id="icon-0"><g fill="#6059ca" data-fill-palette-color="accent"><path d="M85.017 39.091C95.432 28.675 97.601 13.898 89.852 6.15 86.811 3.108 82.627 1.5 77.754 1.5 70.641 1.5 62.848 5.045 56.91 10.983L48 19.894 39.09 10.985C33.152 5.046 25.359 1.5 18.245 1.5 13.373 1.5 9.189 3.107 6.148 6.149-0.034 12.331 0.103 22.983 5.695 32.328A4 4 0 0 0 5.003 34.576 4.01 4.01 0 0 0 9.01 38.584C9.456 38.584 9.877 38.494 10.279 38.359 10.511 38.604 10.743 38.85 10.984 39.091L19.894 48.001 10.984 56.91C0.569 67.325-1.6 82.102 6.148 89.851 9.189 92.892 13.373 94.499 18.245 94.5H18.246C24.989 94.5 32.341 91.31 38.146 85.918 38.646 86.143 39.196 86.273 39.778 86.273A4.01 4.01 0 0 0 43.786 82.267C43.786 81.695 43.661 81.154 43.444 80.661L48 76.107 56.91 85.016C62.848 90.955 70.64 94.5 77.755 94.5H77.756C82.628 94.5 86.811 92.892 89.852 89.851 96.415 83.288 95.861 71.684 89.21 61.957A3.95 3.95 0 0 0 89.775 59.939 4.013 4.013 0 0 0 85.767 55.931C85.255 55.931 84.77 56.036 84.32 56.212L76.106 48zM48 71.865L24.136 48.001 48 24.136 71.864 48zM59.031 13.104C64.419 7.717 71.418 4.5 77.754 4.5 81.815 4.5 85.264 5.804 87.731 8.27 94.31 14.849 92.141 27.723 82.896 36.969L73.986 45.878 50.121 22.015zM12.563 36.388A3.96 3.96 0 0 0 13.016 34.576 4.012 4.012 0 0 0 8.193 30.652C3.354 22.516 3.093 13.447 8.27 8.271 10.737 5.805 14.186 4.501 18.246 4.501 24.582 4.501 31.582 7.718 36.97 13.106L45.88 22.015 22.015 45.879 13.105 36.969C12.915 36.78 12.747 36.581 12.563 36.388M41.3 78.564A4 4 0 0 0 39.779 78.26 4.013 4.013 0 0 0 35.771 82.268C35.771 82.796 35.879 83.298 36.066 83.76 30.813 88.624 24.234 91.5 18.246 91.5 14.186 91.499 10.737 90.195 8.27 87.729 1.692 81.15 3.861 68.275 13.105 59.03L22.015 50.122 45.879 73.985zM87.73 87.73C85.263 90.197 81.814 91.501 77.755 91.501H77.754C71.417 91.5 64.418 88.283 59.03 82.896L50.12 73.987 73.984 50.123 82.135 58.273A4 4 0 0 0 81.76 59.941 4.01 4.01 0 0 0 85.766 63.948C86.13 63.948 86.477 63.884 86.814 63.792 92.593 72.301 93.239 82.22 87.73 87.73" fill="#6059ca" data-fill-palette-color="accent"></path><path d="M56.118 37.886C56.148 37.689 56.179 37.492 56.179 37.286A4.013 4.013 0 0 0 52.171 33.278C50.784 33.278 49.561 33.987 48.841 35.061 48.562 35.043 48.284 35.019 48 35.019 40.842 35.019 35.019 40.842 35.019 48S40.842 60.981 48 60.981 60.981 55.158 60.981 48C60.981 43.913 59.079 40.267 56.118 37.886M48 57.981C42.496 57.981 38.019 53.503 38.019 48S42.497 38.019 48 38.019C48.08 38.019 48.158 38.029 48.238 38.031A4.01 4.01 0 0 0 52.171 41.294C53.067 41.294 53.886 40.988 54.554 40.49 56.65 42.321 57.982 45.005 57.982 48 57.981 53.503 53.504 57.981 48 57.981" fill="#6059ca" data-fill-palette-color="accent"></path><path d="M48 42.329A5.677 5.677 0 0 0 42.329 48C42.329 51.126 44.873 53.669 48 53.669S53.671 51.126 53.671 48A5.677 5.677 0 0 0 48 42.329M48 50.669A2.673 2.673 0 0 1 45.329 48C45.329 46.527 46.527 45.329 48 45.329S50.671 46.527 50.671 48A2.673 2.673 0 0 1 48 50.669" fill="#6059ca" data-fill-palette-color="accent"></path></g></svg></g></svg></g></svg></g><defs></defs></svg><rect width="395.52" height="115.52098565560526" fill="none" stroke="none" visibility="hidden"></rect></g></svg></g></svg>